<svg xmlns="http://www.w3.org/2000/svg" viewBox="0 0 512 512" width="512" height="512">
  <rect width="512" height="512" rx="104" fill="#2E3440"/>
  <!-- Builder / runner: a gear with a run (play) glyph -->
  <g transform="translate(216 222)">
    <g fill="#81A1C1">
      <rect x="-30" y="-208" width="60" height="80" rx="14"/>
      <rect x="-30" y="-208" width="60" height="80" rx="14" transform="rotate(45)"/>
      <rect x="-30" y="-208" width="60" height="80" rx="14" transform="rotate(90)"/>
      <rect x="-30" y="-208" width="60" height="80" rx="14" transform="rotate(135)"/>
      <rect x="-30" y="-208" width="60" height="80" rx="14" transform="rotate(180)"/>
      <rect x="-30" y="-208" width="60" height="80" rx="14" transform="rotate(225)"/>
      <rect x="-30" y="-208" width="60" height="80" rx="14" transform="rotate(270)"/>
      <rect x="-30" y="-208" width="60" height="80" rx="14" transform="rotate(315)"/>
    </g>
    <circle r="156" fill="#81A1C1"/>
    <circle r="96" fill="#2E3440"/>
    <path d="M-30 -52 L58 2 L-30 56 Z" fill="#609926"/>
  </g>
  <!-- Gitea badge, bottom-right corner -->
  <g transform="translate(380 380)">
    <circle r="120" fill="#2E3440"/>
    <circle r="106" fill="#ECEFF4"/>
    <g transform="scale(1.4) translate(-64 -64)">
      <g transform="translate(0,-161.53334)">
        <path fill="#609926" stroke="#428f29" stroke-width="1" d="m 27.709937,195.15095 c -9.546573,-0.0272 -22.3392732,6.79805 -21.6317552,23.90397 1.105534,26.72889 25.4565952,29.20839 35.1916502,29.42301 1.068023,5.01357 12.521798,22.30563 21.001818,23.21667 h 37.15277 c 22.27763,-1.66785 38.9607,-75.75671 26.59321,-76.03825 -46.781583,2.47691 -49.995146,2.13838 -88.599758,0 -2.495053,-0.0266 -5.972321,-0.49474 -9.707935,-0.5054 z m 2.491319,9.45886 c 1.351378,13.69267 3.555849,21.70359 8.018216,33.94345 -11.382872,-1.50473 -21.069822,-5.22443 -22.851515,-19.10984 -0.950962,-7.4112 2.390428,-15.16769 14.833299,-14.83361 z"/>
      </g>
      <rect fill="#ffffff" width="34.762054" height="34.762054" x="87.508659" y="18.291576" transform="rotate(25.914715)" ry="5.4825778"/>
      <path fill="#ffffff" d="m 79.804947,57.359056 3.241146,1.609954 V 35.255731 h -3.262698 z"/>
      <g fill="#609926">
        <circle transform="rotate(-19.796137)" r="3.4745038" cy="90.077766" cx="49.064713"/>
        <circle transform="rotate(-19.796137)" r="3.4745038" cy="102.1049" cx="36.810425"/>
        <circle transform="rotate(-19.796137)" r="3.4745038" cy="111.43928" cx="46.484283"/>
        <rect transform="rotate(26.024158)" y="18.061695" x="97.333458" height="27.261492" width="2.6726954"/>
      </g>
      <path d="m 76.558096,68.116343 c 12.97589,6.395378 13.012989,4.101862 4.890858,20.907244" fill="none" stroke="#609926" stroke-width="2.68"/>
    </g>
  </g>
</svg>
